<?xml version="1.0" encoding="UTF-8" standalone="no"?>
<svg
   xmlns:dc="http://purl.org/dc/elements/1.1/"
   xmlns:cc="http://creativecommons.org/ns#"
   xmlns:rdf="http://www.w3.org/1999/02/22-rdf-syntax-ns#"
   xmlns:svg="http://www.w3.org/2000/svg"
   xmlns="http://www.w3.org/2000/svg"
   xmlns:sodipodi="http://sodipodi.sourceforge.net/DTD/sodipodi-0.dtd"
   xmlns:inkscape="http://www.inkscape.org/namespaces/inkscape"
   inkscape:version="1.0 (4035a4fb49, 2020-05-01)"
   sodipodi:docname="LogoPortal-ContourEmboss.svg"
   id="svg584"
   preserveAspectRatio="xMidYMid meet"
   viewBox="0 0 300.000000 205.000000"
   height="205.000000pt"
   width="300.000000pt"
   version="1.0">
  <defs
     id="defs588">
    <filter
       id="filter1116"
       inkscape:label="Contour Emboss"
       inkscape:menu-tooltip="Satiny and embossed contour effect"
       inkscape:menu="Non-Realistic 3D Shaders"
       height="1.5"
       y="-0.25"
       width="1.5"
       x="-0.25"
       style="color-interpolation-filters:sRGB">
      <feGaussianBlur
         id="feGaussianBlur1096"
         stdDeviation="5"
         result="result8"
         in="SourceGraphic" />
      <feComposite
         id="feComposite1098"
         in="result8"
         in2="result8"
         operator="xor"
         result="result18" />
      <feComposite
         id="feComposite1100"
         in="result18"
         k1="1"
         k2="0.5"
         operator="arithmetic"
         result="result16"
         in2="result8" />
      <feComposite
         id="feComposite1102"
         in2="result8"
         result="result6"
         operator="atop"
         in="result16" />
      <feOffset
         id="feOffset1104"
         result="result17"
         in="result6" />
      <feDisplacementMap
         id="feDisplacementMap1106"
         in2="result16"
         in="result17"
         xChannelSelector="A"
         yChannelSelector="A"
         scale="100"
         result="result4" />
      <feComposite
         id="feComposite1108"
         in2="result4"
         result="result2"
         operator="arithmetic"
         in="result17"
         k3="1" />
      <feComposite
         id="feComposite1110"
         in2="result17"
         result="fbSourceGraphic"
         in="result2"
         operator="out" />
      <feComposite
         id="feComposite1112"
         in="fbSourceGraphic"
         in2="fbSourceGraphic"
         operator="over"
         result="result14" />
      <feComposite
         id="feComposite1114"
         result="result15"
         in2="result17"
         operator="in"
         in="result14" />
    </filter>
  </defs>
  <sodipodi:namedview
     inkscape:current-layer="svg584"
     inkscape:window-maximized="0"
     inkscape:window-y="0"
     inkscape:window-x="0"
     inkscape:cy="118.51408"
     inkscape:cx="135.73695"
     inkscape:zoom="2.0576807"
     showgrid="false"
     id="namedview586"
     inkscape:window-height="927"
     inkscape:window-width="1856"
     inkscape:pageshadow="2"
     inkscape:pageopacity="0"
     guidetolerance="10"
     gridtolerance="10"
     objecttolerance="10"
     borderopacity="1"
     bordercolor="#666666"
     pagecolor="#ffffff" />
  <metadata
     id="metadata300">
Created by potrace 1.10, written by Peter Selinger 2001-2011
<rdf:RDF>
  <cc:Work
     rdf:about="">
    <dc:format>image/svg+xml</dc:format>
    <dc:type
       rdf:resource="http://purl.org/dc/dcmitype/StillImage" />
    <dc:title></dc:title>
  </cc:Work>
</rdf:RDF>
</metadata>
  <g
     style="filter:url(#filter1116)"
     id="g582"
     stroke="none"
     fill="#000000"
     transform="translate(0.000000,205.000000) scale(0.100000,-0.100000)">
    <path
       id="path302"
       d="M1410 2009 c-166 -7 -166 -7 -224 -32 -21 -9 -43 -14 -49 -10 -6 3 -7 1 -3 -5 8 -14 -90 -66 -110 -58 -8 3 -11 0 -8 -8 8 -22 -33 -32 -137 -35 l-66 -1 14 -57 c8 -32 26 -98 40 -148 14 -49 33 -124 43 -166 9 -42 20 -81 24 -87 6 -10 116 -13 116 -2 0 3 -9 52 -20 110 -11 58 -25 133 -30 168 -6 34 -14 81 -20 105 -5 23 -10 47 -10 54 0 7 65 44 145 84 l145 71 177 6 c321 9 324 9 457 -37 149 -51 184 -72 271 -160 72 -73 85 -82 85 -55 0 8 -4 12 -10 9 -5 -3 -10 1 -10 10 0 9 -9 19 -20 22 -11 3 -17 10 -13 16 3 5 1 7 -4 4 -13 -8 -46 27 -36 38 5 4 3 6 -2 2 -6 -3 -26 10 -44 29 -19 19 -40 34 -47 34 -7 0 -19 6 -26 13 -7 7 -40 21 -73 31 -33 10 -69 22 -80 26 -11 4 -22 8 -25 9 -3 1 -27 8 -54 16 -52 16 -125 17 -396 4z m-457 -191 c3 -18 13 -71 22 -118 8 -47 16 -98 16 -115 1 -16 5 -34 9 -40 6 -8 23 -89 25 -119 0 -12 -33 -16 -58 -7 -21 8 -25 18 -72 196 -28 107 -54 201 -61 218 -5 15 1 17 54 17 60 0 60 0 65 -32z" />
    <path
       id="path304"
       d="M574 1954 c18 -18 22 -39 4 -28 -7 4 -8 3 -4 -4 10 -17 19 -15 33 8 10 16 10 18 -1 14 -7 -3 -16 2 -19 10 -4 9 -11 16 -17 16 -6 0 -4 -7 4 -16z" />
    <path
       id="path306"
       d="M886 1952 c-3 -5 1 -9 9 -9 8 0 12 4 9 9 -3 4 -7 8 -9 8 -2 0 -6 -4 -9 -8z" />
    <path
       id="path308"
       d="M1331 1940 c-24 -5 -47 -7 -51 -5 -4 3 -10 -5 -13 -16 -4 -13 -10 -18 -18 -13 -8 4 -10 3 -5 -4 5 -9 12 -9 29 0 57 30 133 39 217 26 70 -11 104 -24 96 -37 -3 -4 1 -8 9 -8 21 0 19 10 -5 25 -12 7 -19 16 -16 21 3 4 -9 8 -27 8 -18 1 -63 4 -102 7 -38 3 -90 1 -114 -4z" />
    <path
       id="path310"
       d="M513 1926 c4 -13 38 -15 35 -1 -2 5 -11 10 -21 10 -10 1 -16 -3 -14 -9z" />
    <path
       id="path312"
       d="M1771 1926 c-7 -8 -8 -17 -3 -20 6 -3 15 1 21 8 7 8 8 17 3 20 -6 3 -15 -1 -21 -8z" />
    <path
       id="path314"
       d="M844 1918 c4 -19 23 -20 30 -2 5 14 4 15 -8 5 -10 -8 -16 -9 -19 -1 -3 6 -4 5 -3 -2z" />
    <path
       id="path316"
       d="M1633 1914 c-17 -13 -17 -15 1 -29 15 -12 16 -15 5 -15 -9 0 -16 -6 -16 -13 0 -11 6 -11 24 -3 28 13 29 23 3 31 -11 3 -20 10 -20 15 0 12 37 23 50 15 5 -3 18 -2 27 3 13 8 9 10 -19 10 -21 0 -45 -6 -55 -14z" />
    <path
       id="path318"
       d="M420 1915 c0 -2 6 -8 13 -14 10 -8 14 -7 14 2 0 8 -6 14 -14 14 -7 0 -13 -1 -13 -2z" />
    <path
       id="path320"
       d="M490 1904 c0 -8 5 -12 10 -9 6 4 8 11 5 16 -9 14 -15 11 -15 -7z" />
    <path
       id="path322"
       d="M643 1905 c0 -8 4 -12 9 -9 5 3 6 10 3 15 -9 13 -12 11 -12 -6z" />
    <path
       id="path324"
       d="M657 1880 c-10 -12 -10 -13 3 -4 8 6 25 10 37 9 12 -1 20 2 17 6 -7 13 -44 6 -57 -11z" />
    <path
       id="path326"
       d="M1290 1889 c-10 -6 -4 -7 19 -2 31 6 34 4 29 -15 -4 -15 -2 -22 8 -22 8 0 14 7 14 15 0 8 9 15 20 15 23 0 23 -22 0 -32 -11 -5 -8 -7 9 -7 17 -1 22 3 17 14 -9 23 37 36 108 31 54 -5 56 -4 16 3 -62 12 -222 12 -240 0z" />
    <path
       id="path328"
       d="M1880 1881 c-25 -7 -25 -8 -3 -15 12 -4 33 -4 47 0 31 7 56 -10 56 -38 0 -11 4 -16 11 -12 17 10 78 -27 76 -48 -2 -23 0 -23 -55 9 -26 16 -53 27 -60 25 -7 -2 -26 8 -43 22 -33 28 -44 31 -54 17 -3 -5 4 -12 15 -16 23 -7 25 -16 8 -33 -9 -9 -7 -13 5 -18 9 -3 17 -13 17 -21 0 -11 7 -13 25 -9 14 4 25 3 25 -2 0 -4 7 -17 16 -28 15 -18 15 -18 5 3 -13 26 -14 63 -2 63 15 0 61 -27 56 -32 -3 -3 7 -5 22 -4 16 1 28 6 28 13 0 7 5 17 11 23 15 15 58 -6 51 -25 -3 -7 5 -18 19 -25 13 -8 24 -17 24 -22 0 -4 6 -8 13 -8 6 0 18 -4 26 -9 11 -7 -3 -39 -68 -151 -45 -78 -81 -143 -79 -144 2 -2 22 -1 46 2 38 4 45 9 68 48 14 24 27 44 29 44 2 0 -1 -17 -6 -37 -5 -21 -9 -41 -9 -45 0 -5 19 -8 43 -8 l43 0 109 157 c61 87 111 160 113 163 2 5 -14 6 -78 2 -19 -2 -34 -15 -58 -54 l-34 -53 7 45 c4 25 12 54 17 65 9 16 8 18 -3 8 -7 -7 -34 -13 -60 -13 -35 0 -49 -4 -54 -17 -6 -16 -8 -16 -18 -2 -7 9 -23 19 -37 22 -18 4 -30 18 -39 42 -7 22 -19 35 -30 35 -9 0 -22 5 -29 12 -9 9 -12 9 -12 1 0 -22 -60 8 -75 37 -21 40 -60 50 -125 31z m55 -102 c12 -19 -5 -23 -22 -6 -16 16 -16 17 -1 17 9 0 20 -5 23 -11z m398 -81 c2 -7 1 -23 -4 -34 -5 -14 -3 -29 5 -40 12 -16 14 -16 31 9 9 15 21 24 26 21 5 -3 6 2 3 10 -3 9 -1 16 5 16 6 0 11 7 11 15 0 10 11 15 35 15 l35 0 -17 -27 c-10 -16 -20 -30 -24 -33 -3 -3 -25 -33 -48 -67 -23 -34 -47 -61 -54 -59 -7 1 -9 1 -4 -1 8 -5 -23 -63 -34 -63 -4 0 -9 -9 -12 -20 -10 -41 -62 -16 -62 29 0 39 -22 35 -50 -8 -24 -39 -65 -57 -65 -28 1 17 25 47 39 47 7 0 9 5 6 10 -3 6 -2 10 3 10 5 0 12 15 16 32 4 18 19 49 35 69 16 20 36 52 45 72 12 31 20 37 45 37 16 0 31 -6 34 -12z" />
    <path
       id="path330"
       d="M2143 1463 c-15 -5 -17 -23 -4 -23 5 0 11 7 15 15 3 8 4 15 3 14 -1 0 -8 -3 -14 -6z" />
    <path
       id="path332"
       d="M428 1862 c-32 -1 -58 -5 -58 -8 0 -2 28 -59 62 -127 33 -67 82 -169 109 -226 l47 -104 64 -1 63 -1 -24 48 c-13 26 -22 50 -19 52 3 3 27 -19 55 -48 49 -52 51 -53 112 -54 l61 -2 -59 70 -59 71 20 20 c17 17 20 29 15 69 -3 26 -13 63 -23 80 -16 32 -16 33 5 50 11 9 21 22 21 29 0 6 -11 -1 -25 -16 -14 -15 -25 -22 -25 -15 0 18 -49 60 -102 87 -48 25 -127 33 -240 26z m190 -23 c63 -13 127 -67 153 -127 22 -50 25 -133 7 -162 -10 -16 -10 -24 0 -40 7 -12 10 -26 6 -32 -5 -7 -2 -9 9 -5 20 7 39 -15 31 -37 -7 -18 -24 -22 -24 -6 0 6 -4 10 -10 10 -5 0 -7 -8 -3 -17 6 -16 4 -16 -15 1 -12 10 -19 22 -17 26 3 4 -3 14 -12 21 -14 12 -16 12 -8 -1 5 -9 -2 -6 -16 5 -44 38 -63 51 -55 38 4 -7 3 -13 -2 -13 -6 0 -6 -13 1 -35 6 -19 8 -37 6 -39 -13 -12 -79 -9 -79 4 0 7 -168 359 -197 413 -6 11 169 8 225 -4z m227 -409 c3 -5 1 -10 -4 -10 -6 0 -11 5 -11 10 0 6 2 10 4 10 3 0 8 -4 11 -10z" />
    <path
       id="path334"
       d="M582 1722 c-10 -7 -9 -17 3 -52 19 -53 32 -70 55 -70 40 0 66 65 35 90 -8 7 -13 16 -10 19 2 4 -1 8 -8 8 -7 0 -23 3 -37 7 -14 3 -31 2 -38 -2z m66 -28 c32 -22 27 -69 -6 -69 -17 0 -28 10 -42 43 l-19 42 22 0 c13 0 33 -7 45 -16z" />
    <path
       id="path336"
       d="M1016 1853 c-25 -13 -27 -19 -21 -46 3 -18 7 -42 8 -54 3 -30 11 -29 25 1 9 20 8 25 -9 29 -11 3 -19 14 -19 26 0 27 45 47 66 30 10 -8 14 -8 14 -1 0 23 -34 31 -64 15z" />
    <path
       id="path338"
       d="M1124 1851 c-59 -27 -74 -53 -74 -131 1 -94 24 -234 44 -265 40 -61 141 -84 221 -51 43 18 62 48 71 114 l7 52 -61 0 c-59 0 -61 -1 -64 -27 -2 -22 -9 -29 -30 -31 -35 -4 -48 21 -50 100 -2 69 4 88 31 88 25 0 41 -20 41 -52 0 -27 0 -27 65 -25 35 1 66 6 68 12 2 5 1 38 -3 72 -9 71 -39 127 -80 148 -40 21 -136 19 -186 -4z m138 0 c9 0 24 -8 32 -17 9 -8 16 -12 16 -8 0 3 7 1 15 -6 18 -15 20 -35 3 -24 -7 4 -8 3 -4 -5 4 -6 11 -9 16 -6 15 9 29 -29 32 -86 l3 -54 -41 -2 c-34 -1 -44 2 -54 22 -7 13 -9 28 -6 34 5 7 1 8 -10 4 -13 -5 -16 -3 -11 9 5 14 1 15 -26 7 -47 -13 -58 -30 -59 -87 0 -85 23 -142 58 -142 31 0 55 10 48 21 -3 5 0 9 5 9 6 0 11 6 11 13 0 9 14 14 40 15 39 2 39 2 35 -32 -8 -62 -22 -83 -62 -97 -80 -27 -170 -3 -199 52 -30 59 -44 317 -17 312 7 -2 10 3 7 11 -3 7 1 18 9 24 22 19 90 40 117 37 14 -1 33 -3 42 -4z" />
    <path
       id="path340"
       d="M1478 1863 c-26 -4 -26 -6 -32 -91 -4 -48 -11 -139 -16 -204 -16 -189 -20 -175 49 -176 66 -1 71 5 71 81 0 26 4 37 13 35 18 -7 37 -49 37 -85 l0 -32 55 0 c46 1 55 4 61 23 12 36 7 104 -10 137 -9 18 -16 34 -16 36 0 2 28 -23 62 -56 62 -61 73 -94 18 -53 -34 26 -41 27 -34 8 5 -13 54 -36 76 -36 6 0 7 18 3 43 -6 34 -5 40 6 30 23 -23 31 -14 11 12 -11 14 -23 43 -27 65 -8 46 -30 70 -48 51 -9 -10 -9 -11 3 -6 12 4 19 -6 29 -42 8 -27 13 -52 11 -58 -1 -5 -3 -15 -3 -22 0 -7 -8 -5 -23 5 -12 9 -20 20 -17 25 2 4 -1 7 -6 7 -6 0 -20 9 -31 20 -11 11 -26 17 -34 14 -8 -3 -17 -1 -21 5 -3 6 1 11 9 11 40 0 139 143 161 233 l7 27 -74 0 -75 0 -18 -61 c-12 -40 -32 -75 -57 -102 l-39 -42 7 50 c3 28 9 74 13 103 l8 52 -51 -1 c-28 -1 -63 -4 -78 -6z m93 -30 c4 -72 3 -92 -4 -121 -10 -40 7 -69 29 -51 7 6 19 7 25 3 7 -4 9 -3 5 4 -3 6 0 16 7 24 12 13 47 81 65 129 9 22 16 26 62 28 l52 2 -7 -28 c-9 -39 -36 -93 -45 -93 -4 0 -11 -11 -14 -25 -8 -30 -45 -67 -59 -58 -6 3 -7 1 -3 -5 3 -6 -3 -16 -14 -22 -20 -11 -28 -40 -10 -40 5 0 16 -13 25 -30 9 -16 13 -30 9 -30 -4 0 -1 -6 5 -13 11 -14 9 -72 -3 -84 -3 -3 -19 -7 -36 -8 -27 -2 -31 1 -41 38 -11 43 -33 66 -61 67 -18 0 -25 -18 -30 -75 -3 -24 -8 -30 -30 -32 -15 -1 -35 5 -43 13 -10 11 -15 12 -15 3 0 -7 -3 -9 -6 -6 -4 4 -2 12 3 19 10 12 26 198 32 364 l1 40 50 3 c42 2 50 -1 51 -16z" />
    <path
       id="path342"
       d="M1711 1824 c0 -11 3 -14 6 -6 3 7 2 16 -1 19 -3 4 -6 -2 -5 -13z" />
    <path
       id="path344"
       d="M301 1844 c0 -11 3 -14 6 -6 3 7 2 16 -1 19 -3 4 -6 -2 -5 -13z" />
    <path
       id="path346"
       d="M1400 1805 c-15 -19 -11 -25 12 -16 11 4 14 11 9 19 -6 10 -10 10 -21 -3z" />
    <path
       id="path348"
       d="M356 1802 c-3 -5 1 -9 9 -9 8 0 12 4 9 9 -3 4 -7 8 -9 8 -2 0 -6 -4 -9 -8z" />
    <path
       id="path350"
       d="M1620 1800 c-12 -8 -11 -10 8 -10 12 0 22 5 22 10 0 13 -11 13 -30 0z" />
    <path
       id="path352"
       d="M2303 1795 c0 -8 4 -12 9 -9 5 3 6 10 3 15 -9 13 -12 11 -12 -6z" />
    <path
       id="path354"
       d="M319 1783 c-13 -16 -12 -17 4 -4 9 7 17 15 17 17 0 8 -8 3 -21 -13z" />
    <path
       id="path356"
       d="M2256 1792 c-2 -4 2 -16 10 -27 8 -10 14 -14 14 -8 0 7 -5 15 -10 18 -6 4 -8 11 -5 16 4 5 4 9 1 9 -3 0 -7 -3 -10 -8z" />
    <path
       id="path358"
       d="M2360 1790 c0 -5 9 -8 20 -7 21 1 18 10 -5 13 -8 1 -15 -2 -15 -6z" />
    <path
       id="path360"
       d="M2480 1791 c0 -9 30 -24 36 -18 2 1 -6 8 -16 15 -11 7 -20 8 -20 3z" />
    <path
       id="path362"
       d="M2660 1790 c8 -5 20 -10 25 -10 6 0 3 5 -5 10 -8 5 -19 10 -25 10 -5 0 -3 -5 5 -10z" />
    <path
       id="path364"
       d="M2300 1766 c0 -2 7 -7 16 -10 8 -3 12 -2 9 4 -6 10 -25 14 -25 6z" />
    <path
       id="path366"
       d="M2345 1760 c-3 -5 -1 -10 4 -10 6 0 11 5 11 10 0 6 -2 10 -4 10 -3 0 -8 -4 -11 -10z" />
    <path
       id="path368"
       d="M2676 1753 c-6 -14 -5 -15 5 -6 7 7 10 15 7 18 -3 3 -9 -2 -12 -12z" />
    <path
       id="path370"
       d="M2750 1750 c0 -5 5 -10 11 -10 5 0 7 5 4 10 -3 6 -8 10 -11 10 -2 0 -4 -4 -4 -10z" />
    <path
       id="path372"
       d="M1810 1735 c0 -8 5 -15 11 -15 6 0 9 -7 5 -15 -3 -8 -1 -15 5 -15 6 0 24 -14 40 -31 30 -32 40 -28 15 7 -10 13 -11 23 -4 32 8 9 6 18 -7 32 -21 24 -65 27 -65 5z m35 -5 c4 -6 10 -8 15 -5 9 6 21 -20 13 -29 -13 -13 -28 -5 -40 19 -11 24 -1 36 12 15z" />
    <path
       id="path374"
       d="M365 1730 c-3 -6 1 -7 9 -4 18 7 21 14 7 14 -6 0 -13 -4 -16 -10z" />
    <path
       id="path376"
       d="M1408 1733 c7 -3 16 -2 19 1 4 3 -2 6 -13 5 -11 0 -14 -3 -6 -6z" />
    <path
       id="path378"
       d="M2034 1719 c-41 -12 -118 -95 -148 -161 -49 -106 -66 -144 -66 -151 0 -4 18 -7 40 -7 34 0 42 4 55 30 11 21 23 30 40 30 29 0 31 -7 9 -38 l-16 -23 47 3 c53 3 43 -8 127 150 22 43 43 76 47 74 4 -3 5 12 3 32 -7 63 -56 85 -138 61z m100 -18 c14 -1 16 -4 7 -14 -8 -10 -7 -17 1 -25 8 -8 8 -15 0 -24 -5 -7 -11 -16 -11 -21 -2 -23 -32 -78 -40 -73 -5 3 -7 -3 -4 -14 3 -11 1 -20 -4 -20 -5 0 -20 -23 -32 -51 -16 -35 -26 -47 -32 -38 -6 10 -10 10 -24 -1 -14 -12 -15 -10 -6 12 13 34 0 50 -33 44 -33 -6 -56 -23 -56 -43 0 -8 -8 -13 -17 -11 -10 1 -24 -1 -31 -5 -8 -5 -5 11 8 44 30 75 40 90 52 83 6 -4 8 -3 4 4 -7 12 13 62 26 62 5 0 7 4 4 8 -7 12 60 76 72 68 5 -3 12 0 15 8 5 12 21 13 101 7z" />
    <path
       id="path380"
       d="M2013 1620 c-26 -11 -57 -55 -48 -70 10 -16 75 -12 82 6 3 8 12 13 21 9 12 -4 12 -2 4 8 -7 8 -9 17 -5 20 6 7 -15 37 -26 36 -3 0 -16 -4 -28 -9z m37 -21 c0 -25 -22 -49 -45 -49 -29 0 -31 7 -9 38 15 22 54 31 54 11z" />
    <path
       id="path382"
       d="M2485 1623 c-39 -54 -92 -129 -119 -167 l-49 -69 81 6 c99 8 137 23 198 79 52 48 127 142 145 182 10 22 9 29 -6 46 -15 17 -31 20 -99 20 l-82 0 -69 -97z m239 71 c13 -12 14 -20 4 -37 -32 -62 -162 -207 -185 -207 -7 0 -13 -4 -13 -9 0 -16 -126 -36 -135 -21 -4 6 -11 7 -17 4 -7 -4 -8 -2 -4 5 4 6 12 9 17 6 5 -4 9 1 9 11 0 21 41 94 52 94 5 0 7 4 4 9 -3 5 1 15 10 22 9 7 32 38 51 69 20 30 41 58 47 62 22 15 144 9 160 -8z" />
    <path
       id="path384"
       d="M2553 1610 c-18 -11 -33 -27 -33 -35 0 -8 -4 -15 -9 -15 -5 0 -19 -17 -31 -37 -20 -35 -21 -38 -5 -50 22 -16 58 1 98 46 41 46 53 77 37 96 -16 19 -18 19 -57 -5z m57 -9 c0 -14 -69 -100 -90 -111 -49 -26 -50 -9 -3 55 34 45 55 64 71 65 12 0 22 -4 22 -9z" />
    <path
       id="path386"
       d="M1915 1690 c10 -11 20 -20 23 -20 3 0 -3 9 -13 20 -10 11 -20 20 -23 20 -3 0 3 -9 13 -20z" />
    <path
       id="path388"
       d="M399 1677 c7 -7 14 -8 21 -1 6 6 2 10 -12 11 -16 2 -18 -1 -9 -10z" />
    <path
       id="path390"
       d="M1010 1680 c0 -5 5 -10 11 -10 5 0 7 5 4 10 -3 6 -8 10 -11 10 -2 0 -4 -4 -4 -10z" />
    <path
       id="path392"
       d="M2773 1665 c0 -7 7 -11 15 -8 12 5 12 2 3 -15 -7 -12 -9 -22 -7 -22 3 0 10 9 16 20 8 15 6 21 -8 29 -14 7 -19 6 -19 -4z" />
    <path
       id="path394"
       d="M400 1656 c0 -2 7 -7 16 -10 8 -3 12 -2 9 4 -6 10 -25 14 -25 6z" />
    <path
       id="path396"
       d="M370 1635 c0 -2 11 -10 24 -18 22 -15 24 -15 22 1 -2 10 -12 17 -24 18 -12 1 -22 0 -22 -1z" />
    <path
       id="path398"
       d="M1030 1581 c0 -6 4 -13 10 -16 6 -3 7 1 4 9 -7 18 -14 21 -14 7z" />
    <path
       id="path400"
       d="M848 1556 c-19 -14 -23 -26 -10 -26 4 0 13 9 20 20 14 23 13 24 -10 6z" />
    <path
       id="path402"
       d="M1774 1559 c-3 -6 -1 -16 4 -21 8 -8 11 -5 9 11 -1 24 -3 25 -13 10z" />
    <path
       id="path404"
       d="M2714 1554 c-18 -14 -18 -14 6 -3 31 14 36 19 24 19 -6 0 -19 -7 -30 -16z" />
    <path
       id="path406"
       d="M863 1503 c-3 -10 -8 -22 -11 -26 -2 -5 5 -3 16 4 11 7 18 19 15 26 -7 18 -12 16 -20 -4z" />
    <path
       id="path408"
       d="M2680 1491 c0 -5 5 -13 10 -16 6 -3 10 -2 10 4 0 5 -4 13 -10 16 -5 3 -10 2 -10 -4z" />
    <path
       id="path410"
       d="M2652 1475 c4 -4 3 -14 -4 -22 -6 -7 -9 -15 -7 -18 3 -2 10 4 17 15 9 15 9 21 -1 26 -6 4 -9 4 -5 -1z" />
    <path
       id="path412"
       d="M1740 1449 c0 -5 5 -9 10 -9 6 0 10 -9 10 -21 0 -11 -5 -17 -10 -14 -6 4 -7 12 -4 18 5 8 3 8 -6 0 -11 -11 -10 -17 8 -36 29 -30 28 -40 -3 -35 -36 7 -41 -8 -9 -28 14 -10 30 -29 35 -42 5 -14 12 -22 15 -19 3 2 -2 21 -10 41 -8 20 -11 34 -7 31 5 -2 15 3 22 12 12 14 12 16 0 8 -11 -6 -13 -2 -9 19 4 21 3 24 -8 15 -15 -13 -18 -1 -6 19 5 8 16 10 27 6 12 -5 16 -4 11 4 -9 15 -66 42 -66 31z" />
    <path
       id="path414"
       d="M470 1436 c0 -2 7 -7 16 -10 8 -3 12 -2 9 4 -6 10 -25 14 -25 6z" />
    <path
       id="path416"
       d="M1368 1409 c-10 -5 -18 -15 -18 -22 0 -8 3 -8 8 -2 4 6 18 16 32 22 14 6 18 12 10 12 -8 0 -23 -4 -32 -10z" />
    <path
       id="path418"
       d="M516 1398 c3 -5 10 -6 15 -3 13 9 11 12 -6 12 -8 0 -12 -4 -9 -9z" />
    <path
       id="path420"
       d="M2181 1383 c7 -12 15 -20 18 -17 3 2 -3 12 -13 22 -17 16 -18 16 -5 -5z" />
    <path
       id="path422"
       d="M1025 1363 c-27 -14 -44 -28 -37 -31 7 -2 19 1 26 7 8 7 31 14 51 16 20 3 44 10 54 16 12 8 9 9 -17 5 -20 -4 -31 -2 -27 4 8 13 8 13 -50 -17z" />
    <path
       id="path424"
       d="M1910 1381 c0 -5 7 -12 16 -15 14 -5 15 -4 4 9 -14 17 -20 19 -20 6z" />
    <path
       id="path426"
       d="M696 1373 c7 -4 14 -17 17 -28 5 -16 5 -15 4 4 -1 14 -9 26 -17 28 -10 3 -11 2 -4 -4z" />
    <path
       id="path428"
       d="M1508 1373 c7 -3 16 -2 19 1 4 3 -2 6 -13 5 -11 0 -14 -3 -6 -6z" />
    <path
       id="path430"
       d="M1540 1376 c0 -2 9 -6 20 -9 11 -3 18 -1 14 4 -5 9 -34 13 -34 5z" />
    <path
       id="path432"
       d="M1840 1376 c0 -2 7 -7 16 -10 8 -3 12 -2 9 4 -6 10 -25 14 -25 6z" />
    <path
       id="path434"
       d="M2105 1370 c3 -5 8 -10 11 -10 2 0 4 5 4 10 0 6 -5 10 -11 10 -5 0 -7 -4 -4 -10z" />
    <path
       id="path436"
       d="M2230 1370 c0 -5 5 -10 10 -10 6 0 10 5 10 10 0 6 -4 10 -10 10 -5 0 -10 -4 -10 -10z" />
    <path
       id="path438"
       d="M2440 1365 c7 -9 15 -13 17 -11 7 7 -7 26 -19 26 -6 0 -6 -6 2 -15z" />
    <path
       id="path440"
       d="M755 1343 c-3 -16 -12 -31 -18 -35 -9 -6 -9 -8 0 -8 16 0 46 57 34 64 -5 3 -12 -6 -16 -21z" />
    <path
       id="path442"
       d="M493 1350 c4 -7 30 -65 84 -190 67 -155 111 -250 117 -250 3 0 27 4 53 9 26 5 68 12 93 16 l44 6 -24 -26 c-25 -27 -55 -33 -63 -12 -3 8 -11 4 -22 -11 -12 -17 -24 -23 -41 -19 -13 2 -22 1 -20 -2 2 -3 -18 -14 -46 -23 -42 -14 -50 -14 -55 -2 -9 24 5 43 39 53 32 9 32 9 6 10 -28 1 -37 14 -18 26 6 3 10 1 10 -6 0 -7 3 -10 6 -6 3 3 3 11 -1 17 -9 15 -38 -8 -31 -26 3 -7 -2 -15 -10 -18 -8 -3 -14 -19 -14 -36 0 -16 -4 -30 -10 -30 -5 0 -7 13 -4 30 7 30 -1 38 -43 44 -26 4 -29 89 -7 194 11 56 14 86 7 93 -7 7 -9 1 -7 -18 1 -15 -2 -34 -9 -41 -13 -16 -13 -16 -15 -141 -2 -78 -4 -92 -17 -87 -8 3 -14 1 -12 -5 1 -6 -16 -12 -38 -14 -52 -6 -68 -9 -81 -18 -7 -4 -23 2 -37 13 -29 23 -70 26 -86 6 -7 -8 -11 -29 -11 -47 0 -19 -2 -57 -6 -84 -7 -58 4 -73 52 -76 32 -1 190 54 214 76 8 7 24 15 35 17 17 3 26 -11 55 -82 20 -47 44 -114 55 -150 10 -36 29 -84 42 -107 26 -47 28 -57 11 -47 -7 4 -8 3 -4 -4 4 -6 13 -9 21 -5 8 3 15 1 15 -5 0 -9 -79 -52 -185 -98 -27 -12 -72 -32 -100 -44 -113 -51 -115 -51 -109 -35 4 8 4 15 0 15 -3 0 -10 -15 -15 -33 -10 -30 -10 -28 -8 19 1 31 -2 50 -8 48 -14 -5 -30 7 -44 33 -8 16 -20 22 -39 22 -46 -2 -64 -10 -58 -25 4 -9 -2 -14 -15 -14 -25 0 -35 -25 -19 -45 7 -8 9 -15 4 -15 -5 0 -1 -5 9 -11 17 -10 17 -12 2 -23 -22 -16 -12 -54 25 -95 35 -38 55 -39 123 -5 28 14 66 27 82 29 57 6 70 10 85 26 8 8 33 23 55 33 47 21 187 92 232 117 17 10 34 15 37 12 3 -4 6 -1 6 5 0 7 7 12 16 12 8 0 13 -4 10 -9 -3 -5 1 -14 9 -21 8 -7 15 -10 15 -6 0 13 76 -33 120 -73 25 -22 53 -43 63 -47 9 -3 17 -10 17 -15 0 -5 9 -9 20 -9 11 0 20 -4 20 -8 0 -5 8 -8 18 -8 9 0 49 -3 87 -7 39 -4 94 -10 123 -13 34 -4 50 -9 46 -16 -4 -6 -3 -8 3 -5 6 4 50 -4 99 -16 125 -31 181 -24 362 47 79 31 154 58 166 60 75 14 169 51 219 86 31 23 57 46 57 51 0 6 5 7 12 3 6 -4 8 -3 4 4 -3 6 20 32 51 59 67 56 117 103 109 103 -3 0 6 21 19 48 13 26 27 59 30 75 4 15 20 41 36 58 15 16 31 38 34 48 3 11 14 21 25 24 11 3 25 18 32 33 20 43 100 117 110 102 5 -8 6 -2 2 14 -4 18 -1 29 11 35 9 5 17 16 18 25 2 8 10 26 18 39 9 13 19 34 23 46 4 14 19 26 34 29 34 8 54 23 46 36 -3 5 0 16 7 24 11 13 10 18 -4 25 -9 6 -17 17 -17 26 0 11 -6 14 -24 9 -14 -3 -26 -1 -28 5 -7 20 -35 -2 -52 -41 -11 -25 -24 -40 -35 -40 -29 0 -33 -13 -9 -32 14 -11 19 -21 13 -25 -5 -5 -12 -17 -13 -28 -8 -43 -112 -168 -131 -156 -2 2 -8 -3 -12 -11 -7 -10 -9 -9 -9 3 0 9 -6 22 -14 28 -12 10 -10 19 9 56 52 96 68 194 47 277 -6 24 -6 40 1 47 7 7 4 10 -10 8 -19 -1 -19 -3 -5 -61 18 -81 12 -135 -29 -228 -32 -75 -34 -77 -52 -60 -14 12 -17 25 -13 50 3 23 1 32 -7 29 -7 -2 -25 7 -41 20 -25 21 -38 24 -85 21 -31 -2 -65 -8 -76 -12 -35 -14 49 57 124 104 53 33 88 66 134 124 101 130 99 116 14 116 l-73 0 -54 -78 c-30 -44 -69 -89 -87 -101 l-33 -21 0 25 c0 14 17 49 38 78 21 29 44 62 51 75 12 22 11 22 -63 22 l-74 0 -40 -67 c-74 -127 -74 -125 -58 -185 l14 -53 -45 -62 -44 -63 32 0 c23 0 30 -4 26 -14 -3 -8 -9 -31 -13 -50 -5 -32 -24 -52 -24 -26 0 6 -5 10 -11 10 -7 0 -9 -10 -7 -25 6 -29 -18 -55 -47 -51 -15 2 -19 9 -17 27 2 13 9 30 14 37 6 6 7 12 2 12 -17 0 -29 -15 -29 -34 0 -11 -6 -21 -12 -23 -7 -3 -13 0 -13 6 0 6 5 11 11 11 5 0 7 5 3 12 -4 6 -1 16 7 22 17 13 38 82 45 146 3 25 10 49 15 54 14 15 11 60 -6 82 -8 10 -15 28 -15 39 -1 20 -1 20 -10 0 -5 -11 -9 -15 -9 -10 -2 12 -21 -16 -21 -30 0 -5 4 -4 9 4 8 12 12 12 25 2 15 -12 15 -15 -1 -26 -15 -11 -15 -13 5 -19 18 -6 20 -11 11 -27 -5 -11 -15 -17 -20 -13 -7 4 -7 -1 0 -14 6 -12 7 -23 2 -26 -4 -3 -6 -16 -4 -28 5 -28 -12 -78 -27 -78 -7 0 -5 9 4 22 20 28 20 48 1 84 -14 27 -14 30 5 43 11 7 20 18 20 24 0 6 -3 7 -7 3 -4 -3 -13 4 -20 16 -12 20 -13 21 -10 3 2 -11 -2 -32 -10 -47 -8 -18 -9 -29 -3 -33 6 -4 8 -10 5 -15 -3 -4 2 -11 11 -14 21 -8 10 -41 -27 -77 -37 -37 -51 -37 -43 -2 7 27 6 28 -13 11 -11 -10 -26 -18 -34 -18 -8 -1 -5 -6 8 -13 12 -7 22 -15 22 -20 -1 -25 8 -29 31 -16 14 8 30 21 36 29 21 26 28 2 10 -37 -16 -37 -18 -38 -68 -37 -56 1 -71 14 -39 36 13 9 17 19 12 27 -6 9 -11 10 -15 2 -4 -6 -4 -11 -1 -11 4 0 0 -7 -9 -15 -8 -8 -21 -15 -30 -15 -11 0 -10 6 7 24 23 25 33 66 16 66 -5 0 -9 -8 -9 -18 0 -10 -20 -39 -45 -65 -33 -35 -52 -47 -74 -47 -17 0 -33 -4 -36 -10 -4 -6 5 -8 22 -4 36 7 73 -27 54 -50 -8 -9 -8 -21 -2 -39 9 -23 12 -25 35 -14 27 13 34 34 14 42 -8 3 -13 24 -14 50 -1 49 14 62 48 44 17 -9 18 -13 7 -20 -19 -12 -8 -11 30 2 42 15 131 -15 124 -42 -5 -16 -8 -16 -50 -2 -31 11 -54 13 -75 7 -29 -9 -30 -10 -15 -26 20 -20 22 -35 5 -41 -7 -2 -10 -8 -6 -12 13 -14 83 21 83 41 0 13 6 18 20 16 27 -5 28 -7 21 -35 -5 -23 -45 -42 -83 -40 -7 0 -10 -3 -7 -8 3 -5 -2 -12 -10 -15 -19 -7 -17 -54 1 -54 18 0 147 35 201 54 32 12 49 13 63 5 11 -6 25 -9 32 -6 11 3 -153 67 -175 67 -9 0 -3 48 8 60 11 10 111 -35 141 -64 45 -45 87 -74 128 -92 l37 -15 -25 -32 c-38 -50 -93 -82 -202 -117 -149 -48 -152 -48 -134 -49 9 -1 47 8 83 19 37 12 70 19 75 16 5 -3 14 1 21 9 7 8 18 15 24 15 6 0 28 9 49 20 20 11 37 16 37 11 0 -5 -6 -11 -12 -14 -10 -3 -10 -9 -1 -25 10 -16 9 -23 -6 -36 -23 -21 -35 -20 -27 0 5 13 4 14 -7 6 -8 -7 -17 -9 -20 -5 -4 3 -10 -3 -14 -13 -9 -24 -33 -43 -55 -44 -14 0 -14 4 -5 24 7 13 15 22 19 20 3 -2 10 1 14 7 5 9 0 10 -17 6 -13 -4 -27 -7 -30 -7 -3 0 -4 -16 -3 -35 3 -34 2 -35 -31 -35 -19 0 -35 -5 -35 -11 0 -6 9 -8 23 -4 17 5 19 4 7 -4 -8 -6 -22 -8 -30 -6 -39 12 -79 12 -84 -1 -9 -24 -37 -15 -49 16 -6 17 -18 30 -25 30 -9 0 -12 6 -8 16 5 12 2 15 -10 10 -8 -3 -22 1 -31 10 -17 17 -17 17 15 33 19 10 21 15 11 33 -9 16 -8 24 4 35 20 20 40 7 33 -22 -4 -14 -1 -25 7 -28 9 -4 9 -7 0 -18 -17 -17 -16 -26 2 -33 11 -4 15 0 13 12 -2 12 4 17 22 18 43 2 46 6 10 13 l-35 6 60 17 c176 48 269 89 294 129 12 20 9 18 -20 -8 -46 -43 -312 -134 -332 -113 -8 8 -8 11 0 6 7 -4 9 1 6 14 -3 11 -9 20 -13 20 -15 0 -20 31 -9 52 10 18 9 20 -6 15 -9 -4 -19 -7 -21 -7 -2 0 -4 -9 -4 -20 0 -11 -9 -29 -20 -40 -11 -11 -20 -31 -20 -45 0 -13 -6 -28 -14 -32 -16 -9 -11 -63 6 -63 5 0 6 -5 3 -10 -4 -7 2 -9 18 -5 31 8 41 -6 22 -31 -11 -16 -17 -17 -33 -7 -11 6 -30 9 -42 6 -20 -5 -22 -3 -16 25 5 19 3 33 -5 38 -9 5 -10 2 -6 -9 3 -10 2 -17 -4 -17 -17 0 -22 30 -10 56 9 20 8 24 -2 22 -7 -2 -14 2 -16 7 -1 6 -9 14 -17 18 -8 4 -14 15 -14 22 0 19 1 19 -53 -5 -25 -11 -52 -18 -59 -15 -8 3 -21 -1 -28 -10 -14 -17 -47 -20 -52 -4 -2 7 -10 4 -18 -7 -14 -16 -13 -17 4 -11 14 6 17 4 12 -9 -3 -8 -6 -20 -6 -25 0 -5 -7 -9 -15 -9 -8 0 -15 -4 -15 -10 0 -18 -40 -32 -56 -19 -11 9 -18 9 -26 1 -14 -14 -61 6 -54 24 3 7 -2 10 -13 7 -10 -2 -23 3 -30 11 -8 9 -21 16 -30 16 -36 -1 114 -91 229 -138 l25 -10 -29 -11 c-20 -8 -38 -9 -57 -2 -16 5 -31 6 -34 1 -10 -17 21 -24 103 -26 81 -1 97 -5 97 -26 0 -18 60 -47 76 -37 8 5 28 9 44 9 17 0 35 4 40 9 18 15 73 30 95 24 16 -4 6 -13 -52 -40 -40 -19 -84 -41 -98 -48 -36 -18 -116 -6 -114 18 2 16 -4 17 -42 11 -27 -4 -44 -2 -44 4 0 5 -13 12 -29 15 -16 4 -40 17 -54 30 -26 27 -74 27 -74 2 0 -10 9 -12 29 -8 16 3 34 0 44 -8 14 -12 14 -14 -2 -26 -33 -24 -60 -16 -79 23 -14 29 -21 35 -43 32 -15 -2 -26 -9 -25 -15 2 -7 -7 -19 -20 -28 -30 -19 -110 -8 -115 17 -5 25 26 30 49 7 25 -25 35 -19 19 11 -16 30 -74 25 -78 -7 -3 -22 -4 -22 -30 -6 -15 10 -29 21 -32 24 -3 4 -19 11 -35 15 -39 9 -55 22 -55 46 0 27 42 20 55 -10 5 -12 13 -22 17 -22 12 0 9 25 -4 38 -9 9 -8 12 4 12 9 0 19 -4 22 -9 4 -5 31 -17 62 -27 42 -13 61 -15 73 -7 10 6 29 9 44 6 36 -7 36 17 1 52 -19 19 -29 23 -34 15 -4 -6 -20 -10 -36 -8 -21 2 -30 9 -32 26 -3 17 2 22 17 22 12 0 21 6 21 15 0 20 54 20 71 -1 10 -12 10 -20 1 -35 -10 -15 -9 -19 2 -19 8 0 18 5 21 10 20 32 -45 85 -90 74 -15 -4 -32 -1 -43 7 -16 13 -16 12 1 -7 17 -21 17 -21 -13 -22 -17 0 -33 6 -39 15 -5 10 -15 14 -26 9 -14 -5 -16 -9 -7 -18 23 -23 14 -38 -20 -31 -18 3 -37 10 -42 14 -6 5 -17 9 -25 9 -10 0 -1 -14 22 -38 40 -41 48 -58 20 -44 -10 5 -24 7 -31 5 -7 -3 -20 1 -28 8 -12 10 -19 8 -37 -11 l-22 -22 29 6 c22 6 27 4 23 -7 -7 -18 42 -67 67 -67 27 0 57 -20 50 -32 -4 -7 -3 -8 4 -4 11 7 51 -11 63 -28 4 -5 32 -7 63 -4 41 3 62 11 77 26 24 27 38 28 46 4 19 -52 59 -65 111 -35 29 17 32 17 69 -4 21 -11 46 -19 55 -18 10 2 20 -1 24 -6 3 -5 20 -9 39 -9 18 0 35 -5 37 -10 2 -6 20 -2 43 10 21 11 47 20 57 20 10 0 18 4 18 9 0 5 24 18 53 29 28 11 53 27 55 35 4 18 -29 31 -73 29 -16 0 -23 2 -15 5 8 3 18 10 21 15 4 6 15 5 27 -3 16 -10 24 -10 34 -1 12 9 19 6 36 -17 25 -34 48 -32 83 5 20 22 22 27 10 46 -12 20 -11 21 19 15 36 -8 124 28 155 63 10 11 22 20 27 20 17 0 7 -27 -19 -52 -33 -32 -73 -48 -120 -50 -21 -1 -30 -5 -24 -11 5 -5 31 -3 66 8 62 18 115 61 115 93 0 13 12 23 43 33 52 17 85 46 96 85 5 16 13 28 19 27 6 -2 9 3 6 11 -3 7 11 27 31 45 38 33 26 43 -15 11 -19 -15 -28 -16 -39 -7 -12 10 -12 9 0 -11 13 -21 12 -24 -10 -41 -13 -10 -21 -23 -18 -28 10 -15 -22 -53 -44 -53 -17 0 -19 6 -16 37 3 30 8 38 25 38 11 0 24 4 28 8 5 4 0 5 -10 1 -15 -6 -17 -4 -11 7 33 55 49 68 94 74 26 3 53 10 61 16 20 12 4 11 -43 -2 -52 -14 -112 -3 -150 30 -18 14 -41 31 -52 37 -27 15 -32 54 -9 71 12 8 13 13 5 13 -24 0 -8 96 20 126 56 60 156 81 224 49 l30 -15 -27 4 c-16 2 -25 -1 -22 -6 4 -6 17 -8 30 -5 13 2 29 -2 35 -9 9 -11 7 -14 -8 -14 -25 0 -53 -30 -53 -58 0 -46 68 -80 98 -50 16 16 17 -54 1 -85 -15 -29 -50 -67 -62 -67 -6 0 -2 9 7 19 12 13 15 27 11 40 -22 70 -174 33 -163 -41 3 -22 7 -23 73 -23 64 0 70 -2 67 -20 -7 -45 -61 -143 -98 -176 -21 -20 -78 -72 -125 -116 -93 -86 -105 -92 -226 -123 -46 -11 -138 -43 -205 -70 -68 -28 -150 -55 -183 -61 -63 -12 -115 -5 -280 41 -38 10 -100 19 -138 19 -82 1 -168 29 -217 71 -19 17 -68 52 -107 78 -40 26 -73 49 -73 52 0 3 53 33 118 67 90 47 124 60 145 56 16 -3 24 -9 18 -12 -6 -4 15 -7 46 -7 32 0 94 -3 138 -6 44 -3 69 -2 55 2 -24 8 -24 8 5 9 17 1 37 6 45 11 10 7 -2 8 -40 3 -60 -9 -145 -8 -230 2 -43 6 -51 9 -36 17 13 7 26 7 43 -1 13 -6 36 -11 51 -10 21 1 17 3 -15 11 -24 5 -43 13 -43 18 0 16 44 21 90 11 25 -6 78 -11 118 -11 57 0 72 3 72 15 0 8 -5 15 -10 15 -7 0 -7 6 -2 18 14 26 5 40 -36 53 -36 12 -36 13 -12 21 17 5 13 6 -15 2 -38 -5 -39 -5 -20 10 16 12 17 15 5 16 -9 0 -22 -6 -29 -12 -8 -7 -11 -8 -8 -2 4 8 -11 14 -44 18 -28 4 -71 15 -96 25 l-45 17 25 17 c23 15 25 15 37 -8 12 -22 38 -40 46 -32 2 1 -10 17 -26 34 l-29 31 21 18 c20 18 20 18 17 -1 -3 -12 1 -19 9 -18 6 2 12 -2 12 -7 0 -5 6 -9 13 -7 6 1 11 -2 10 -8 -1 -5 10 -11 24 -12 14 0 36 -13 50 -27 13 -14 33 -26 43 -26 30 0 24 17 -10 29 -16 5 -30 17 -30 25 0 9 -9 16 -19 16 -27 0 -91 39 -91 56 0 7 -9 18 -20 24 -11 6 -20 20 -20 31 0 16 3 18 19 10 10 -6 21 -8 23 -5 3 2 19 9 35 13 28 8 30 7 25 -11 -4 -15 -1 -19 9 -16 9 4 13 17 11 43 -3 37 -3 38 28 31 22 -4 36 -1 46 9 14 13 19 13 45 0 40 -21 42 -65 2 -65 -33 -1 -70 -25 -53 -35 5 -3 8 -10 5 -15 -3 -4 2 -13 10 -20 8 -7 15 -18 15 -25 0 -7 7 -16 16 -19 30 -11 27 2 -8 33 -24 22 -28 30 -16 31 9 0 20 -9 23 -21 4 -11 9 -18 12 -15 7 7 43 -12 43 -23 0 -4 -10 -13 -23 -20 -18 -9 -23 -21 -23 -45 1 -32 2 -33 31 -24 24 6 33 4 43 -9 7 -10 20 -17 28 -15 8 2 14 -2 14 -8 0 -5 7 -10 15 -10 9 0 12 -6 8 -17 -5 -12 -3 -14 7 -8 8 5 19 -1 31 -16 10 -13 19 -18 19 -11 0 6 9 12 20 12 11 0 20 5 20 11 0 5 4 8 8 5 4 -2 8 10 9 27 1 30 1 30 -7 7 -4 -14 -8 -21 -9 -17 -1 5 -8 1 -17 -7 -8 -9 -20 -13 -26 -10 -7 5 -5 11 5 19 20 14 23 37 4 29 -16 -6 -69 20 -60 29 9 10 -10 8 -25 -2 -10 -6 -7 -10 12 -15 14 -3 30 -15 36 -26 14 -26 -1 -26 -23 0 -9 11 -23 20 -31 20 -7 0 -19 7 -26 15 -10 12 -9 20 4 39 17 26 11 38 -14 27 -8 -3 -15 -14 -15 -25 0 -10 -9 -22 -21 -26 -34 -13 -18 36 17 52 22 10 27 17 23 34 -6 25 26 64 52 64 24 0 91 -73 73 -79 -15 -4 -29 -21 -29 -35 0 -5 7 -3 15 4 21 17 32 4 17 -20 -7 -11 -8 -20 -3 -20 6 0 13 5 16 10 11 18 35 11 35 -11 0 -15 4 -19 16 -15 9 3 18 6 21 6 3 0 1 6 -5 13 -5 6 -12 27 -14 45 -4 28 -2 32 17 32 27 0 35 8 28 26 -4 10 -10 11 -23 4 -24 -13 -70 -13 -70 0 0 6 7 10 16 10 8 0 12 5 8 11 -4 6 -20 8 -39 5 -27 -5 -36 -3 -49 16 -14 20 -19 21 -36 10 -18 -11 -25 -9 -55 13 -19 15 -37 39 -40 56 -4 19 -13 29 -25 29 -9 0 -23 7 -30 15 -12 14 -15 14 -30 0 -19 -18 -30 -19 -30 -4 0 5 4 8 9 5 5 -3 14 1 21 10 10 11 10 18 2 26 -9 9 -12 9 -12 0 0 -7 -10 -22 -21 -33 -17 -17 -23 -18 -29 -8 -6 8 5 25 32 48 36 33 40 42 48 106 16 125 13 188 -13 226 -58 86 -186 104 -260 35 -14 -13 -28 -22 -31 -19 -2 3 -11 -4 -18 -16 -7 -12 -18 -21 -25 -21 -7 0 -13 -4 -13 -10 0 -16 9 -12 37 18 20 20 24 22 18 7 -13 -32 -13 -113 2 -200 7 -44 13 -81 13 -82 0 -1 14 -16 31 -34 22 -22 27 -34 20 -43 -6 -7 -8 -16 -5 -19 4 -3 10 -24 14 -45 7 -42 -3 -49 -33 -23 -13 10 -13 18 -5 44 6 18 16 38 22 46 9 11 4 12 -30 7 l-40 -7 -17 78 c-9 43 -23 130 -33 193 -9 63 -18 122 -19 130 -2 8 -4 18 -4 23 -2 13 -171 8 -173 -5 -3 -27 -5 -55 -7 -103 l-1 -50 -51 83 c-38 61 -56 82 -72 82 -12 1 -55 2 -95 3 -39 1 -71 0 -69 -3z m184 -36 c8 -10 11 -24 9 -31 -3 -8 1 -10 12 -6 9 3 14 3 10 -2 -9 -9 61 -97 72 -90 4 3 14 35 21 71 14 70 19 76 71 76 60 1 79 -2 73 -12 -3 -5 1 -36 10 -69 8 -32 14 -69 14 -82 -1 -13 1 -31 5 -40 4 -10 3 -20 -3 -24 -6 -3 -11 -12 -11 -18 0 -8 3 -7 9 2 11 17 20 -6 22 -64 1 -22 6 -47 10 -56 14 -28 -13 -42 -41 -22 -18 12 -21 13 -16 2 4 -8 -2 -3 -13 11 -11 14 -21 32 -22 40 -3 50 -22 82 -38 65 -5 -6 -15 -28 -22 -50 -11 -33 -14 -36 -17 -17 -2 14 -10 22 -24 22 -11 0 -18 5 -16 12 6 17 -34 37 -48 24 -7 -7 -7 -20 2 -45 16 -44 17 -64 4 -56 -5 3 -10 1 -10 -4 0 -6 -10 -10 -22 -8 -27 2 -62 52 -55 79 3 10 2 18 -2 18 -10 0 -30 39 -36 68 -2 12 -13 34 -24 49 -12 14 -21 29 -21 34 0 5 -11 32 -24 61 -44 97 -46 91 36 85 54 -4 75 -10 85 -23z m577 14 c16 -6 41 -23 55 -36 26 -24 26 -26 25 -152 -1 -107 -4 -134 -19 -157 -14 -21 -20 -24 -24 -13 -3 8 -10 16 -16 17 -5 1 -18 5 -27 8 -11 4 -18 3 -18 -5 0 -6 -5 -8 -10 -5 -7 4 -3 14 10 25 17 14 20 29 20 90 0 80 -15 110 -55 110 -37 0 -49 -25 -47 -96 2 -72 14 -104 40 -105 9 0 1 -5 -18 -11 -19 -5 -38 -15 -42 -21 -5 -8 -8 -7 -8 3 0 13 -1 13 -10 0 -8 -13 -11 -13 -22 -1 -11 11 -11 14 0 18 10 4 10 8 -2 17 -8 6 -17 31 -20 56 -3 25 -8 69 -11 98 -7 59 0 106 15 97 6 -3 7 1 4 9 -4 10 -1 16 8 16 8 0 24 11 35 24 24 27 88 34 137 14z m1326 5 c9 9 8 5 -1 -10 -7 -12 -15 -20 -18 -18 -2 3 -12 -10 -21 -28 -10 -17 -21 -32 -26 -32 -17 0 -34 -16 -29 -25 7 -11 -14 -54 -22 -46 -3 3 -12 -2 -20 -10 -8 -8 -19 -12 -24 -9 -5 4 -9 -1 -9 -9 0 -8 -18 -22 -40 -32 -22 -10 -40 -22 -40 -27 0 -4 -10 -5 -22 -2 -15 4 -19 3 -10 -3 10 -6 4 -15 -22 -33 -20 -13 -36 -29 -36 -34 0 -6 -16 -19 -36 -30 -19 -10 -40 -27 -45 -37 -8 -14 -12 -16 -23 -6 -10 10 -7 20 17 56 28 42 29 45 18 99 -8 41 -8 60 0 70 6 7 8 13 5 13 -4 0 7 20 24 44 16 25 30 49 30 55 0 6 4 11 9 11 5 0 11 9 14 20 4 16 13 20 44 20 63 0 66 -9 22 -75 -40 -61 -45 -80 -30 -104 8 -12 14 -12 45 3 19 9 38 21 41 26 4 6 11 8 16 5 5 -4 9 -1 9 6 0 20 54 99 68 99 7 0 12 8 10 17 -4 20 37 33 68 22 13 -5 26 -3 34 4z m-70 -103 c0 -5 -5 -10 -11 -10 -5 0 -7 5 -4 10 3 6 8 10 11 10 2 0 4 -4 4 -10z m-1276 -77 c12 -60 -3 -128 -29 -128 -27 0 -45 40 -45 101 0 54 14 76 45 72 15 -2 22 -14 29 -45z m1548 -25 c-7 -7 -12 -19 -12 -27 0 -11 5 -9 16 7 8 12 25 27 37 33 19 10 18 8 -5 -18 -16 -16 -28 -32 -28 -35 0 -4 12 0 28 8 15 7 34 14 42 14 8 0 0 -8 -17 -16 -40 -20 -42 -32 -5 -28 18 2 14 -1 -13 -9 -36 -12 -45 -22 -85 -97 -43 -80 -126 -180 -150 -180 -21 0 2 44 55 102 28 32 64 83 79 113 15 31 31 53 35 50 5 -2 14 2 21 10 8 9 8 15 2 15 -6 0 -12 -3 -14 -7 -1 -5 -21 -5 -43 -2 -34 5 -36 6 -10 8 25 1 33 8 47 43 10 23 21 38 25 35 4 -4 1 -13 -5 -19z m-1942 -180 c0 -5 -11 -8 -26 -8 -19 0 -28 8 -38 33 -33 79 -30 84 18 32 25 -27 45 -53 46 -57z m50 83 c0 -10 3 -33 6 -50 6 -29 4 -31 -21 -31 -19 0 -26 4 -22 14 3 8 9 31 13 50 7 38 24 50 24 17z m1523 -27 c9 -3 17 -10 17 -16 0 -7 -5 -6 -15 2 -8 6 -22 10 -32 7 -15 -4 -15 -5 3 -6 11 0 31 -12 44 -26 12 -13 27 -22 31 -19 5 3 9 0 9 -6 0 -8 -7 -9 -17 -5 -10 4 -26 10 -35 12 -10 3 -16 9 -13 13 2 4 -22 2 -54 -5 -111 -23 -175 -83 -177 -166 -1 -26 -4 -52 -8 -58 -4 -6 -4 -17 -1 -23 4 -7 -3 -2 -14 11 -12 13 -21 21 -21 18 0 -3 -14 -1 -31 5 -28 9 -29 12 -15 27 9 10 16 23 16 29 0 16 17 15 22 0 3 -7 7 11 11 40 7 59 34 109 69 131 44 27 167 47 211 35z m-1210 -45 c-16 -7 -16 -8 -1 -8 24 -1 32 -19 16 -39 -12 -15 -11 -16 5 -3 19 15 23 41 6 41 -5 0 -7 5 -4 10 12 19 45 11 45 -10 0 -11 -4 -20 -10 -20 -5 0 -7 -13 -4 -29 4 -16 1 -32 -5 -35 -6 -4 -9 -12 -6 -17 10 -16 -4 -10 -25 11 -14 14 -16 20 -6 20 7 0 20 8 27 18 11 14 11 15 -1 5 -8 -7 -22 -13 -31 -13 -29 0 -79 34 -79 53 0 24 59 50 78 34 12 -9 11 -12 -5 -18z m1252 11 c3 -5 2 -10 -4 -10 -5 0 -13 5 -16 10 -3 6 -2 10 4 10 5 0 13 -4 16 -10z m-1528 -60 c3 -8 5 -23 4 -32 -3 -23 -2 -23 50 6 24 13 58 26 76 29 l31 6 -24 -61 c-13 -34 -24 -65 -24 -69 0 -3 21 -9 48 -13 80 -11 84 -19 27 -70 l-50 -44 55 -25 55 -24 -75 -36 c-41 -20 -70 -36 -65 -37 20 0 154 64 149 72 -7 11 -7 11 79 -22 110 -42 121 -49 107 -64 -5 -8 -7 -21 -4 -31 6 -15 4 -16 -14 -6 -11 6 -23 7 -26 3 -6 -10 -68 -7 -126 6 -44 11 -45 11 -230 -87 -102 -55 -275 -144 -385 -199 l-200 -100 -28 24 -28 24 43 20 c24 10 101 46 173 78 234 105 563 267 558 275 -2 4 -11 7 -19 7 -8 0 -13 -4 -10 -9 7 -10 -38 -31 -67 -31 -30 0 -32 32 -7 106 39 111 20 182 -56 216 -50 22 -82 16 -131 -22 -35 -28 -47 -13 -38 45 4 33 10 44 17 37 6 -6 17 -8 24 -5 8 3 14 0 14 -7 0 -6 -5 -8 -11 -4 -7 4 -10 1 -7 -6 7 -22 28 -24 28 -3 0 26 74 106 78 84 2 -9 6 -23 9 -31z m83 3 c-8 -3 -26 -12 -40 -19 -23 -11 -26 -10 -27 7 -2 16 5 19 40 18 23 0 35 -3 27 -6z m-444 -33 c5 1 10 -3 12 -9 2 -6 0 -11 -5 -11 -4 0 -8 -11 -8 -24 0 -13 3 -22 8 -19 4 2 7 0 7 -6 0 -15 -68 -34 -97 -26 -25 6 -250 -61 -239 -72 2 -3 50 11 106 31 110 39 134 43 128 24 -4 -13 -168 -76 -199 -77 -8 -1 -23 5 -32 12 -14 10 -15 19 -6 56 5 25 17 50 26 56 13 10 13 14 3 20 -9 6 -11 4 -5 -6 8 -12 6 -12 -8 0 -38 31 1 73 42 45 12 -9 19 -19 16 -24 -7 -12 31 -6 93 15 42 14 55 15 67 5 13 -11 13 -14 -2 -25 -24 -17 -10 -49 18 -40 16 6 20 4 13 -6 -6 -12 -5 -12 9 0 22 18 22 24 -8 54 -15 14 -22 28 -16 31 5 4 17 -4 25 -16 9 -12 16 -17 16 -10 0 7 5 10 11 6 8 -4 9 1 4 17 -4 16 -3 20 3 11 5 -8 13 -13 18 -12z m593 11 c18 -12 6 -42 -14 -35 -8 3 -12 11 -9 16 4 6 0 14 -7 19 -12 7 -11 9 1 9 8 0 21 -4 29 -9z m-629 -11 c0 -5 -2 -10 -4 -10 -3 0 -8 5 -11 10 -3 6 -1 10 4 10 6 0 11 -4 11 -10z m235 -55 c0 -25 -3 -45 -6 -45 -12 0 -30 28 -27 41 2 7 -4 14 -13 16 -13 3 -15 -4 -9 -44 3 -27 9 -53 12 -59 4 -5 3 -16 -3 -24 -7 -13 -9 -12 -9 2 0 9 -7 24 -17 33 -13 13 -14 18 -3 25 10 6 7 13 -10 31 -13 13 -20 19 -17 13 9 -15 -4 -134 -13 -134 -5 0 -11 23 -15 50 -4 28 -11 50 -17 50 -6 0 -7 -7 -4 -16 3 -9 6 -31 6 -49 0 -25 5 -35 21 -40 12 -4 18 -12 15 -21 -6 -16 13 -54 27 -54 4 0 5 4 2 10 -10 16 -13 106 -4 121 6 10 11 6 18 -15 6 -15 9 -31 6 -36 -3 -4 2 -26 9 -48 14 -39 12 -52 -6 -52 -5 0 -6 4 -3 10 3 6 -1 7 -9 4 -9 -3 -16 -10 -16 -14 0 -5 -3 -17 -6 -27 -5 -15 -4 -16 6 -3 9 12 10 9 6 -15 -5 -22 -4 -26 4 -15 5 8 10 12 10 8 0 -3 3 -14 7 -24 5 -13 3 -15 -8 -9 -9 6 -8 1 4 -15 9 -14 21 -35 26 -46 6 -12 19 -29 31 -37 22 -15 22 -15 2 -26 -17 -9 -24 -4 -55 42 -20 28 -43 79 -53 112 -9 33 -34 104 -57 158 -42 104 -41 119 7 110 14 -3 28 2 36 14 12 15 12 16 0 6 -8 -7 -22 -13 -33 -13 -11 0 -17 5 -14 13 2 6 10 11 18 10 10 -2 154 42 154 46 0 1 0 -19 0 -44z m455 15 c0 -5 -7 -7 -15 -4 -8 4 -15 11 -15 18 0 6 -4 4 -10 -4 -6 -9 -5 -17 3 -23 8 -6 6 -7 -6 -3 -10 3 -25 6 -33 6 -8 0 -14 5 -14 11 0 6 8 8 19 4 12 -3 21 0 25 10 4 13 10 14 26 5 11 -6 20 -15 20 -20z m1305 14 c25 -25 15 -67 -19 -79 -24 -8 -31 -6 -47 14 -23 28 -24 45 -3 65 20 21 48 20 69 0z m-2009 -32 c1 -7 0 -8 -2 -3 -3 5 -14 7 -24 4 -12 -3 -20 0 -20 7 0 15 43 9 46 -8z m460 -36 c29 -29 34 -41 34 -80 0 -47 -33 -145 -53 -158 -9 -6 -9 -8 1 -8 6 0 12 -11 12 -25 0 -17 6 -25 18 -25 13 -1 11 -4 -8 -15 -33 -19 -49 -19 -24 0 10 8 13 15 7 15 -7 0 -18 -9 -25 -20 -7 -12 -42 -35 -78 -52 -59 -28 -67 -29 -90 -16 -14 7 -25 21 -25 30 0 9 -9 26 -20 39 -11 12 -14 19 -7 15 16 -9 15 -1 -2 27 -16 25 -32 78 -19 62 4 -5 17 -10 28 -10 12 0 21 -8 23 -20 2 -11 10 -25 17 -30 22 -18 23 -71 3 -78 -7 -2 1 -2 17 1 17 3 41 5 54 4 28 -2 71 33 71 58 0 9 -5 21 -12 28 -15 15 -72 16 -63 2 7 -12 -43 6 -62 22 -11 9 -9 13 8 22 13 6 24 18 26 26 3 10 -1 8 -11 -4 -9 -11 -18 -17 -22 -14 -6 7 21 64 36 73 18 11 11 63 -10 78 -21 14 -21 14 2 21 55 14 89 7 125 -29 39 -39 53 -44 53 -17 0 44 -63 92 -122 92 -25 0 -29 3 -18 10 8 5 35 10 59 10 36 0 49 -6 77 -34z m104 26 c0 -5 12 -13 28 -19 l27 -12 -30 6 c-16 3 -33 8 -37 10 -11 6 -10 23 2 23 6 0 10 -4 10 -8z m1493 -29 c-6 -35 -5 -37 10 -24 10 7 17 10 17 6 0 -12 -31 -45 -42 -45 -13 0 -10 74 4 88 17 17 17 16 11 -25z m-1139 1 c34 -34 10 -66 -29 -40 -27 18 -33 41 -12 49 20 9 25 8 41 -9z m-639 -8 c53 23 100 17 140 -17 19 -17 35 -38 35 -46 0 -10 -14 -2 -41 22 -40 35 -44 37 -97 33 -31 -3 -58 -10 -60 -16 -6 -18 -39 -14 -46 4 -11 30 -6 36 17 22 18 -12 27 -13 52 -2z m3 -58 c32 -32 1 -85 -42 -74 -15 4 -26 1 -29 -7 -3 -6 -3 6 0 28 3 22 10 46 16 53 12 15 39 16 55 0z m1142 -9 c-13 -24 -22 -24 -37 0 -10 16 -8 18 18 19 26 1 28 -2 19 -19z m-300 -10 c0 -5 -4 -9 -8 -9 -5 0 -9 7 -9 15 0 8 4 12 9 9 4 -3 8 -9 8 -15z m160 -4 c0 -8 -4 -15 -9 -15 -13 0 -22 16 -14 24 11 11 23 6 23 -9z m649 -4 c7 -5 10 -14 7 -20 -4 -6 -2 -11 4 -11 26 0 1 -25 -26 -26 -16 0 -45 -4 -64 -7 -25 -5 -29 -4 -15 2 19 9 19 10 -2 10 -25 1 -32 21 -7 21 8 0 12 5 9 10 -13 21 67 38 94 21z m-812 -17 c-3 -3 -12 -4 -19 -1 -8 3 -5 6 6 6 11 1 17 -2 13 -5z m458 -19 l30 -12 -69 -22 c-76 -23 -96 -26 -96 -11 0 6 -4 10 -10 10 -5 0 -7 -6 -4 -14 3 -8 -4 -16 -17 -19 -13 -4 -24 -5 -25 -4 -6 6 45 54 69 64 15 7 27 18 27 24 0 12 46 5 95 -16z m-1320 -36 c-3 -4 -11 -7 -18 -5 -7 1 -9 1 -4 -1 13 -8 8 -43 -7 -37 -11 4 -14 23 -7 56 0 3 10 4 21 1 11 -3 17 -9 15 -14z m14 -103 c0 -7 -2 -6 -6 2 -2 6 -9 10 -14 6 -5 -3 -9 2 -9 12 0 13 3 14 15 4 8 -7 15 -18 14 -24z m96 -18 c-1 -15 -4 -31 -8 -34 -9 -10 -28 6 -21 18 4 6 3 8 -2 5 -5 -3 -21 4 -34 14 -21 17 -21 19 -4 10 16 -8 25 -7 33 3 19 23 38 15 36 -16z m-47 -21 c20 -16 14 -24 -18 -24 -17 0 -26 4 -19 7 8 6 8 9 0 14 -6 4 -11 11 -11 16 0 10 28 3 48 -13z m837 -38 c-4 -5 -16 -8 -28 -8 -17 1 -18 2 -4 6 9 2 17 9 17 14 0 6 5 7 10 4 6 -4 8 -11 5 -16z m-80 -36 c-5 -24 -4 -25 4 -7 13 29 89 40 107 16 16 -22 -5 -31 -61 -26 -25 2 -34 0 -25 -6 18 -11 13 -16 -28 -23 -30 -6 -32 -5 -26 17 3 15 0 27 -8 32 -9 6 -6 10 12 15 14 4 26 7 28 8 1 1 0 -11 -3 -26z m-51 -12 c8 -12 -21 -34 -34 -26 -17 11 -11 35 9 35 11 0 22 -4 25 -9z m187 -47 c10 -12 10 -19 1 -32 -7 -10 -15 -25 -18 -34 -4 -10 -12 -18 -18 -18 -6 0 -19 -13 -28 -28 -16 -27 -16 -29 3 -42 19 -14 19 -15 -1 -22 -24 -9 -70 10 -70 28 0 21 -36 35 -80 29 l-40 -5 21 21 c20 20 20 21 2 34 -10 8 -26 15 -35 15 -10 0 -18 4 -18 10 0 5 -8 7 -17 3 -10 -3 -5 6 12 21 26 24 36 26 75 22 25 -3 61 -1 80 3 59 15 116 13 131 -5z m-623 -24 c9 -26 36 -40 74 -38 21 1 43 -3 50 -10 9 -9 8 -12 -8 -12 -12 0 -24 -3 -28 -7 -11 -11 -45 -13 -51 -3 -3 6 -13 10 -21 10 -22 0 -94 34 -94 44 0 5 -7 14 -15 20 -12 9 -4 11 36 11 38 0 54 -4 57 -15z m795 -63 c-4 -7 -8 -6 -11 3 -3 8 -10 22 -16 30 -6 8 -1 7 11 -4 13 -10 20 -23 16 -29z m-1698 3 c8 -16 15 -45 15 -64 0 -19 5 -38 11 -42 8 -5 10 0 6 17 -3 13 -8 47 -12 74 -5 41 -4 47 6 31 7 -11 15 -45 19 -75 l7 -56 2 48 c1 33 5 46 12 41 12 -7 8 -92 -6 -129 -6 -17 -4 -17 12 3 17 21 33 21 33 1 0 -9 -73 -49 -89 -49 -20 0 -81 63 -81 83 0 18 5 14 27 -18 15 -22 28 -34 31 -27 8 24 -7 57 -44 100 -20 24 -34 46 -30 49 10 10 57 -39 73 -76 8 -18 16 -31 19 -28 4 4 -17 72 -41 130 -12 29 13 19 30 -13z m1591 19 c3 -6 -1 -18 -10 -27 -14 -15 -17 -15 -31 3 -12 17 -14 18 -15 3 0 -9 6 -18 13 -21 16 -6 -4 -41 -27 -45 -42 -9 -55 41 -14 54 11 3 17 8 14 11 -3 4 -1 12 5 20 14 16 55 17 65 2z m74 -13 c0 -19 -17 -29 -37 -22 -12 5 -13 9 -3 21 16 19 40 19 40 1z m105 -16 c9 -15 -14 -40 -36 -40 -22 0 -33 16 -25 35 6 17 52 20 61 5z m-1619 -124 c18 -19 18 -32 0 -17 -8 6 -19 10 -26 9 -7 -2 -15 3 -17 10 -6 17 25 15 43 -2z" />
    <path
       id="path444"
       d="M1121 1154 c0 -11 3 -14 6 -6 3 7 2 16 -1 19 -3 4 -6 -2 -5 -13z" />
    <path
       id="path446"
       d="M1272 1140 c0 -14 2 -19 5 -12 2 6 2 18 0 25 -3 6 -5 1 -5 -13z" />
    <path
       id="path448"
       d="M2160 985 c-13 -14 -22 -27 -19 -29 2 -2 14 10 27 25 29 36 24 38 -8 4z" />
    <path
       id="path450"
       d="M1196 1125 c-3 -8 -1 -15 4 -15 6 0 10 7 10 15 0 8 -2 15 -4 15 -2 0 -6 -7 -10 -15z" />
    <path
       id="path452"
       d="M2330 979 c0 -11 4 -18 10 -14 5 3 7 12 3 20 -7 21 -13 19 -13 -6z" />
    <path
       id="path454"
       d="M2196 950 c-20 -18 -40 -48 -46 -68 -12 -45 -13 -122 -1 -141 5 -8 8 10 6 45 -3 75 10 111 52 153 44 43 36 52 -11 11z" />
    <path
       id="path456"
       d="M2117 759 c4 -13 8 -18 11 -10 2 7 -1 18 -6 23 -8 8 -9 4 -5 -13z" />
    <path
       id="path458"
       d="M255 859 c-9 -14 -2 -20 14 -10 8 6 9 11 3 15 -6 3 -14 1 -17 -5z" />
    <path
       id="path460"
       d="M409 853 c-16 -4 -29 -31 -29 -61 0 -10 5 -10 23 -1 27 14 37 28 37 52 0 17 -2 18 -31 10z m13 -20 c-6 -2 -10 -9 -7 -13 3 -5 1 -11 -5 -15 -5 -3 -10 0 -10 8 0 17 10 27 24 26 6 0 5 -3 -2 -6z" />
    <path
       id="path462"
       d="M356 816 c7 -29 -9 -41 -33 -26 -16 11 -16 11 -1 6 22 -6 34 12 19 27 -9 9 -11 8 -6 -4 5 -14 0 -16 -27 -13 l-33 4 25 -20 c29 -23 41 -25 58 -8 15 15 16 58 2 58 -6 0 -8 -10 -4 -24z" />
    <path
       id="path464"
       d="M855 685 c-29 -28 -31 -42 -9 -73 8 -12 12 -22 7 -22 -4 0 -1 -5 7 -10 8 -5 29 -9 45 -9 30 2 30 2 -5 9 l-35 7 32 2 c32 1 63 30 63 59 0 18 -46 62 -65 62 -9 0 -27 -11 -40 -25z m82 -18 c6 -13 7 -32 2 -44 -12 -33 -76 -33 -88 -1 -11 31 -3 54 22 65 29 13 53 6 64 -20z" />
    <path
       id="path466"
       d="M875 650 c-3 -5 1 -10 9 -10 9 0 16 5 16 10 0 6 -4 10 -9 10 -6 0 -13 -4 -16 -10z" />
    <path
       id="path468"
       d="M880 553 c32 -6 49 -28 44 -56 -4 -21 -4 -21 5 -2 13 29 -10 60 -45 62 -25 1 -25 0 -4 -4z" />
    <path
       id="path470"
       d="M742 483 c-6 -2 -9 -9 -6 -15 4 -6 10 -5 15 3 7 11 9 9 9 -6 0 -16 2 -17 9 -5 16 23 2 35 -27 23z" />
    <path
       id="path472"
       d="M745 700 c-3 -5 1 -10 10 -10 9 0 13 5 10 10 -3 6 -8 10 -10 10 -2 0 -7 -4 -10 -10z" />
    <path
       id="path474"
       d="M2000 650 c-11 -11 -20 -25 -20 -32 0 -6 1 -9 3 -7 1 2 13 16 26 32 28 31 21 37 -9 7z" />
    <path
       id="path476"
       d="M2060 640 c-8 -5 -10 -10 -5 -10 6 0 17 5 25 10 8 5 11 10 5 10 -5 0 -17 -5 -25 -10z" />
    <path
       id="path478"
       d="M1545 270 c-13 -5 -14 -9 -5 -9 8 0 24 4 35 9 13 5 14 9 5 9 -8 0 -24 -4 -35 -9z" />
    <path
       id="path480"
       d="M1612 266 c7 -8 15 -12 17 -11 5 6 -10 25 -20 25 -5 0 -4 -6 3 -14z" />
    <path
       id="path482"
       d="M225 110 c-15 -17 -16 -23 -6 -33 11 -10 13 -9 9 3 -3 8 1 23 10 33 21 24 9 21 -13 -3z" />
    <path
       id="path484"
       d="M1401 1203 c-7 -82 -16 -178 -20 -215 l-6 -68 57 0 57 0 6 38 c12 69 11 68 20 47 4 -11 14 -35 21 -52 13 -32 15 -33 73 -33 34 0 61 -4 61 -10 0 -20 2 -25 13 -39 10 -12 8 -13 -10 -9 -13 4 -23 2 -23 -3 0 -5 -5 -9 -11 -9 -6 0 -9 7 -5 15 3 8 0 14 -7 12 -7 -1 -11 3 -10 8 1 6 -9 12 -23 13 -29 2 -32 -14 -4 -21 11 -3 20 -12 20 -20 0 -20 34 -31 57 -18 10 5 26 12 36 15 11 3 21 15 24 26 3 11 12 20 19 20 8 0 14 6 14 13 0 6 3 23 6 37 5 22 3 22 -16 -7 -30 -45 -34 -41 -9 7 12 22 23 58 26 80 3 22 11 40 17 41 6 0 2 4 -9 8 -11 5 -20 14 -20 21 0 7 -6 15 -12 18 -8 2 -13 -5 -13 -17 0 -12 5 -21 11 -21 21 0 5 -103 -21 -138 -35 -47 -46 -39 -72 53 l-14 50 31 20 c40 27 77 107 78 167 2 90 -51 118 -223 118 l-106 0 -13 -147z m233 125 c48 -9 62 -16 78 -42 23 -38 20 -82 -13 -151 -16 -34 -30 -50 -41 -49 -10 1 -15 -2 -12 -7 3 -5 -2 -12 -10 -15 -20 -8 -20 -30 -2 -82 14 -38 14 -40 -7 -44 -39 -7 -72 6 -71 30 0 11 -3 19 -6 17 -4 -2 -12 7 -19 21 -15 34 -32 26 -46 -22 -10 -37 -13 -39 -53 -42 -41 -3 -42 -2 -37 25 10 60 35 291 35 325 0 33 3 37 28 40 67 8 121 6 176 -4z m74 -434 c-1 -5 -9 -9 -16 -10 -10 -2 -11 1 -1 12 12 14 24 13 17 -2z" />
    <path
       id="path486"
       d="M1526 1196 c-29 -62 -19 -96 27 -89 63 9 93 68 54 104 -32 30 -62 24 -81 -15z m71 3 c18 -18 -5 -68 -33 -75 -33 -9 -37 -2 -29 45 6 34 11 41 29 41 12 0 27 -5 33 -11z" />
    <path
       id="path488"
       d="M1601 1024 c0 -11 3 -14 6 -6 3 7 2 16 -1 19 -3 4 -6 -2 -5 -13z" />
    <path
       id="path490"
       d="M1806 1273 c-16 -43 -35 -83 -43 -89 -32 -27 -6 -82 35 -75 10 2 12 -8 8 -36 -6 -37 -6 -37 5 -9 8 20 9 38 1 62 -9 32 -9 32 14 24 15 -6 24 -6 24 0 0 6 -6 10 -14 10 -8 0 -21 3 -30 6 -12 5 -16 0 -16 -20 0 -14 -4 -26 -10 -26 -5 0 -10 13 -10 29 0 28 2 29 55 33 30 1 55 3 55 2 0 0 -25 -58 -55 -128 -30 -70 -55 -129 -55 -132 0 -2 26 -4 58 -4 l58 0 65 133 65 132 50 -3 c44 -2 52 1 62 20 6 13 27 51 46 86 l36 62 -188 0 -187 0 -29 -77z m257 56 c122 -1 122 -1 70 -81 -29 -42 -37 -47 -86 -44 -29 1 -38 -4 -52 -27 -9 -15 -20 -25 -26 -22 -5 3 -6 0 -3 -8 3 -8 -11 -46 -31 -85 -20 -40 -34 -74 -33 -76 2 -2 -6 -13 -16 -25 -20 -22 -86 -30 -86 -11 0 5 18 51 41 100 22 50 41 103 42 118 2 25 -1 27 -41 30 -29 2 -42 7 -39 15 2 7 12 35 21 64 16 49 19 52 54 55 20 2 46 2 57 1 11 -2 69 -3 128 -4z" />
    <path
       id="path492"
       d="M1349 1324 c-7 -8 -9 -17 -5 -21 3 -3 6 -1 6 6 0 7 4 9 10 6 5 -3 17 -2 26 3 14 8 14 10 -4 15 -12 3 -26 -1 -33 -9z" />
    <path
       id="path494"
       d="M460 1305 c-7 -9 -8 -15 -2 -15 5 0 12 7 16 15 3 8 4 15 2 15 -2 0 -9 -7 -16 -15z" />
    <path
       id="path496"
       d="M425 1291 c-3 -5 -2 -12 3 -15 5 -3 9 1 9 9 0 17 -3 19 -12 6z" />
    <path
       id="path498"
       d="M1375 1290 c-3 -5 -2 -10 4 -10 5 0 13 5 16 10 3 6 2 10 -4 10 -5 0 -13 -4 -16 -10z" />
    <path
       id="path500"
       d="M2376 1274 c-4 -9 -4 -19 -1 -22 2 -3 7 3 11 12 4 9 4 19 1 22 -2 3 -7 -3 -11 -12z" />
    <path
       id="path502"
       d="M2620 1271 c0 -6 4 -13 10 -16 6 -3 7 1 4 9 -7 18 -14 21 -14 7z" />
    <path
       id="path504"
       d="M1375 1249 c-9 -14 -2 -20 14 -10 8 6 9 11 3 15 -6 3 -14 1 -17 -5z" />
    <path
       id="path506"
       d="M2330 1215 c-7 -9 -11 -18 -8 -20 3 -3 11 1 18 10 7 9 11 18 8 20 -3 3 -11 -1 -18 -10z" />
    <path
       id="path508"
       d="M2609 1228 c-7 -23 -3 -45 8 -41 9 4 10 9 3 18 -5 6 -7 15 -3 18 3 4 3 7 0 7 -4 0 -7 -1 -8 -2z" />
    <path
       id="path510"
       d="M1376 1193 c-6 -14 -5 -15 5 -6 7 7 10 15 7 18 -3 3 -9 -2 -12 -12z" />
    <path
       id="path512"
       d="M500 1191 c0 -6 4 -13 10 -16 6 -3 7 1 4 9 -7 18 -14 21 -14 7z" />
    <path
       id="path514"
       d="M2499 1151 c15 -10 21 -163 9 -216 l-7 -30 14 30 c8 18 13 65 13 120 0 86 -6 105 -33 105 -5 0 -4 -4 4 -9z" />
    <path
       id="path516"
       d="M560 1130 c0 -17 17 -47 23 -40 2 3 -2 16 -10 30 -7 14 -13 18 -13 10z" />
    <path
       id="path518"
       d="M2458 1115 c-6 -14 -20 -25 -30 -25 -11 0 -17 -4 -13 -10 10 -17 49 6 56 33 9 34 2 35 -13 2z" />
    <path
       id="path520"
       d="M2117 1093 c-12 -22 -16 -64 -7 -85 9 -22 9 -21 8 7 0 17 4 42 10 58 10 23 1 40 -11 20z" />
    <path
       id="path522"
       d="M566 1054 c-25 -24 -24 -54 1 -84 15 -17 18 -17 40 -3 12 8 23 23 23 32 -1 14 -2 14 -11 -1 -11 -20 -34 -24 -44 -7 -11 17 4 59 21 59 8 0 12 5 9 10 -9 14 -21 12 -39 -6z" />
    <path
       id="path524"
       d="M1687 1062 c-5 -6 -6 -16 -3 -20 3 -4 1 -24 -3 -43 -4 -19 -5 -43 -1 -54 6 -17 9 -13 18 20 12 42 2 120 -11 97z" />
    <path
       id="path526"
       d="M1361 1014 c0 -11 3 -14 6 -6 3 7 2 16 -1 19 -3 4 -6 -2 -5 -13z" />
    <path
       id="path528"
       d="M1340 966 c0 -2 7 -7 16 -10 8 -3 12 -2 9 4 -6 10 -25 14 -25 6z" />
    <path
       id="path530"
       d="M1046 944 c-5 -14 -4 -15 9 -4 17 14 19 20 6 20 -5 0 -12 -7 -15 -16z" />
    <path
       id="path532"
       d="M1500 910 c0 -5 5 -10 10 -10 6 0 10 -6 10 -14 0 -16 30 -30 41 -19 5 5 4 15 -1 23 -7 10 -10 11 -10 3 0 -7 -4 -13 -10 -13 -5 0 -6 7 -3 17 4 11 3 14 -5 9 -7 -4 -12 -2 -12 3 0 6 -4 11 -10 11 -5 0 -10 -4 -10 -10z" />
    <path
       id="path534"
       d="M1429 889 c13 -10 30 -19 39 -19 12 0 9 5 -8 17 -35 25 -61 26 -31 2z" />
    <path
       id="path536"
       d="M2281 867 l-25 -32 32 29 c33 31 37 36 25 35 -5 0 -19 -14 -32 -32z" />
    <path
       id="path538"
       d="M2595 890 c-3 -5 -1 -10 4 -10 6 0 11 5 11 10 0 6 -2 10 -4 10 -3 0 -8 -4 -11 -10z" />
    <path
       id="path540"
       d="M2292 840 c-27 -26 -28 -64 -2 -90 11 -11 16 -20 11 -20 -13 0 -31 25 -41 57 l-8 28 -1 -26 c-1 -14 8 -35 19 -47 37 -40 130 -5 130 50 0 24 -43 68 -68 68 -10 0 -28 -9 -40 -20z m64 2 c6 -4 16 -17 23 -30 26 -50 -38 -94 -81 -55 -25 22 -23 59 4 77 25 18 37 19 54 8z" />
    <path
       id="path542"
       d="M1330 829 c0 -7 -10 -9 -25 -7 -25 5 -34 -5 -15 -17 17 -10 11 -25 -10 -25 -11 0 -20 -6 -20 -13 0 -9 9 -12 29 -9 22 3 27 8 24 22 -3 11 4 24 17 33 13 9 17 17 11 22 -6 3 -11 1 -11 -6z" />
    <path
       id="path544"
       d="M1185 790 c-3 -6 1 -7 9 -4 18 7 21 14 7 14 -6 0 -13 -4 -16 -10z" />
    <path
       id="path546"
       d="M2428 763 c18 -7 15 -23 -5 -24 -11 0 -13 -2 -5 -6 7 -3 20 -2 28 1 13 5 14 9 4 21 -7 8 -18 15 -24 14 -7 0 -6 -2 2 -6z" />
    <path
       id="path548"
       d="M1487 747 c-8 -20 3 -65 19 -78 18 -15 18 -1 -1 34 -8 15 -12 34 -8 42 3 8 3 15 0 15 -3 0 -7 -6 -10 -13z" />
    <path
       id="path550"
       d="M1203 733 c9 -9 19 -14 23 -11 10 10 -6 28 -24 28 -15 0 -15 -1 1 -17z" />
    <path
       id="path552"
       d="M2030 724 c0 -3 28 -17 93 -46 11 -5 16 -4 12 2 -3 6 -12 10 -19 10 -8 0 -19 6 -25 14 -10 12 -61 29 -61 20z" />
    <path
       id="path554"
       d="M1315 710 c3 -5 8 -10 11 -10 2 0 4 5 4 10 0 6 -5 10 -11 10 -5 0 -7 -4 -4 -10z" />
    <path
       id="path556"
       d="M1685 660 c-8 -13 -1 -24 14 -19 6 3 7 10 2 18 -6 10 -10 10 -16 1z" />
    <path
       id="path558"
       d="M1713 640 c-28 -26 -31 -33 -23 -60 8 -27 6 -30 -12 -30 -12 0 -36 -11 -54 -25 -18 -14 -44 -25 -58 -25 -14 0 -27 -4 -30 -9 -19 -30 132 -11 153 19 14 21 46 27 55 11 8 -13 46 -1 46 14 0 6 9 20 20 30 26 24 25 32 -5 39 -14 4 -25 11 -25 17 0 17 -26 -14 -32 -38 -4 -16 -2 -23 8 -23 8 0 14 7 14 15 0 17 16 20 25 5 11 -18 -15 -38 -47 -37 -25 2 -33 8 -41 30 -11 33 7 60 33 52 18 -6 35 19 24 36 -8 14 -17 11 -51 -21z m-45 -122 c-5 -13 -38 -20 -38 -8 0 5 8 11 18 13 9 3 19 5 20 6 2 0 2 -4 0 -11z" />
    <path
       id="path560"
       d="M1407 594 c-11 -11 2 -24 18 -17 8 3 15 0 15 -7 0 -7 6 -18 14 -24 10 -7 13 -21 9 -39 -5 -23 -8 -26 -21 -15 -13 11 -14 9 -8 -17 9 -37 9 -37 30 -29 9 3 13 10 10 15 -3 5 2 9 10 9 19 0 21 15 3 31 -7 7 -11 24 -9 39 3 21 -2 29 -25 40 -15 8 -31 16 -34 17 -3 2 -8 0 -12 -3z" />
    <path
       id="path562"
       d="M1803 507 c2 -27 5 -33 15 -25 16 14 15 33 -2 47 -12 10 -14 7 -13 -22z" />
    <path
       id="path564"
       d="M1730 493 c0 -23 15 -39 24 -25 3 5 -1 18 -9 28 -14 18 -14 18 -15 -3z" />
    <path
       id="path566"
       d="M1765 480 c4 -6 11 -8 16 -5 14 9 11 15 -7 15 -8 0 -12 -5 -9 -10z" />
    <path
       id="path568"
       d="M1760 453 c0 -8 5 -13 12 -11 18 6 21 25 3 25 -8 0 -15 -7 -15 -14z" />
    <path
       id="path570"
       d="M1373 383 c-20 -8 -15 -20 11 -25 19 -4 22 -1 18 14 -4 19 -8 20 -29 11z" />
    <path
       id="path572"
       d="M1925 380 c-7 -12 2 -30 16 -30 12 0 12 27 0 35 -5 3 -12 1 -16 -5z" />
    <path
       id="path574"
       d="M2030 363 c0 -15 15 -28 32 -29 10 -1 15 2 12 7 -8 13 -44 31 -44 22z" />
    <path
       id="path576"
       d="M1970 331 c0 -9 24 -21 43 -21 6 0 2 7 -9 15 -22 17 -34 19 -34 6z" />
    <path
       id="path578"
       d="M1293 307 c-13 -5 -23 -17 -22 -26 1 -23 12 -46 24 -48 6 -1 18 -4 27 -8 25 -10 55 39 38 61 -22 25 -44 32 -67 21z m55 -38 c2 -9 -4 -19 -13 -23 -21 -8 -55 10 -55 30 0 22 64 15 68 -7z" />
    <path
       id="path580"
       d="M841 307 c2 -1 12 -9 22 -16 15 -12 17 -12 11 3 -3 9 -13 16 -22 16 -8 0 -13 -1 -11 -3z" />
    <path
       style="stroke-width:0.603604"
       d="m 2306.871,786.14694 c -1.5394,-3.55026 0.5131,-7.10052 4.6181,-7.10052 4.618,0 8.2098,3.55026 8.2098,7.10052 0,4.26031 -2.0524,7.10051 -4.618,7.10051 -3.0787,0 -6.6705,-2.8402 -8.2099,-7.10051 z"
       id="path466-1" />
    <path
       id="path466-1-5"
       d="m 2455.8261,816.10827 c -1.5394,-3.5503 0.5131,-7.1005 4.6181,-7.1005 4.618,0 8.2098,3.5502 8.2098,7.1005 0,4.2603 -2.0524,7.1005 -4.618,7.1005 -3.0787,0 -6.6705,-2.8402 -8.2099,-7.1005 z"
       style="stroke-width:0.603604" />
  </g>
</svg>
